<?xml version="1.0" encoding="UTF-8" standalone="no"?>
<svg
   xmlns:dc="http://purl.org/dc/elements/1.1/"
   xmlns:cc="http://creativecommons.org/ns#"
   xmlns:rdf="http://www.w3.org/1999/02/22-rdf-syntax-ns#"
   xmlns:svg="http://www.w3.org/2000/svg"
   xmlns="http://www.w3.org/2000/svg"
   xmlns:sodipodi="http://sodipodi.sourceforge.net/DTD/sodipodi-0.dtd"
   xmlns:inkscape="http://www.inkscape.org/namespaces/inkscape"
   version="1.1"
   viewBox="0 0 64 64"
   id="svg8"
   sodipodi:docname="gruvbox-radio-unchecked-symbolic.svg"
   width="64"
   height="64"
   inkscape:version="1.0.2 (e86c870879, 2021-01-15, custom)">
  <metadata
     id="metadata14">
    <rdf:RDF>
      <cc:Work
         rdf:about="">
        <dc:format>image/svg+xml</dc:format>
        <dc:type
           rdf:resource="http://purl.org/dc/dcmitype/StillImage" />
        <dc:title></dc:title>
      </cc:Work>
    </rdf:RDF>
  </metadata>
  <defs
     id="defs12" />
  <sodipodi:namedview
     pagecolor="#ffffff"
     bordercolor="#666666"
     borderopacity="1"
     objecttolerance="10"
     gridtolerance="10"
     guidetolerance="10"
     inkscape:pageopacity="0"
     inkscape:pageshadow="2"
     inkscape:window-width="913"
     inkscape:window-height="1060"
     id="namedview10"
     showgrid="true"
     inkscape:zoom="10.180556"
     inkscape:cx="33.719683"
     inkscape:cy="18.841231"
     inkscape:window-x="1007"
     inkscape:window-y="20"
     inkscape:window-maximized="0"
     inkscape:current-layer="svg8">
    <inkscape:grid
       type="xygrid"
       id="grid16" />
  </sodipodi:namedview>
  <path
     class="warning"
     d="M 58.66625,32 A 26.66625,26.66625 0 0 1 32,58.66625 26.66625,26.66625 0 0 1 5.33375,32 26.66625,26.66625 0 0 1 32,5.33375 26.66625,26.66625 0 0 1 58.66625,32 Z"
     fill="#fe8019"
     id="path2"
     style="stroke-width:3.5555" />
  <path
     class="error"
     d="M 32,3.556 A 28.444,28.444 0 0 0 3.556,32 28.444,28.444 0 0 0 32,60.444 28.444,28.444 0 0 0 60.444,32 28.444,28.444 0 0 0 32,3.556 Z m 0,3.5555 A 24.8885,24.8885 0 0 1 56.8885,32 24.8885,24.8885 0 0 1 32,56.8885 24.8885,24.8885 0 0 1 7.1115,32 24.8885,24.8885 0 0 1 32,7.1115 Z"
     fill="#d65d0e"
     id="path4"
     style="stroke-width:3.5555" />
</svg>
