<?xml version="1.0" encoding="UTF-8" standalone="no"?>
<svg
   xmlns:dc="http://purl.org/dc/elements/1.1/"
   xmlns:cc="http://creativecommons.org/ns#"
   xmlns:rdf="http://www.w3.org/1999/02/22-rdf-syntax-ns#"
   xmlns:svg="http://www.w3.org/2000/svg"
   xmlns="http://www.w3.org/2000/svg"
   xmlns:sodipodi="http://sodipodi.sourceforge.net/DTD/sodipodi-0.dtd"
   xmlns:inkscape="http://www.inkscape.org/namespaces/inkscape"
   version="1.1"
   viewBox="0 0 64 64"
   id="svg8"
   sodipodi:docname="gruvbox-radio-checked-active.svg"
   width="64"
   height="64"
   inkscape:version="1.0.2 (e86c870879, 2021-01-15, custom)">
  <metadata
     id="metadata14">
    <rdf:RDF>
      <cc:Work
         rdf:about="">
        <dc:format>image/svg+xml</dc:format>
        <dc:type
           rdf:resource="http://purl.org/dc/dcmitype/StillImage" />
        <dc:title></dc:title>
      </cc:Work>
    </rdf:RDF>
  </metadata>
  <defs
     id="defs12" />
  <sodipodi:namedview
     pagecolor="#ffffff"
     bordercolor="#666666"
     borderopacity="1"
     objecttolerance="10"
     gridtolerance="10"
     guidetolerance="10"
     inkscape:pageopacity="0"
     inkscape:pageshadow="2"
     inkscape:window-width="798"
     inkscape:window-height="1060"
     id="namedview10"
     showgrid="true"
     inkscape:zoom="7.1987402"
     inkscape:cx="36.301529"
     inkscape:cy="24.336047"
     inkscape:window-x="1209"
     inkscape:window-y="20"
     inkscape:window-maximized="0"
     inkscape:current-layer="svg8"
     inkscape:document-rotation="0">
    <inkscape:grid
       type="xygrid"
       id="grid16" />
  </sodipodi:namedview>
  <path
     class="warning"
     d="M 58.66625,32 A 26.66625,26.66625 0 0 1 32,58.66625 26.66625,26.66625 0 0 1 5.33375,32 26.66625,26.66625 0 0 1 32,5.33375 26.66625,26.66625 0 0 1 58.66625,32 Z"
     fill="#fe8019"
     id="path2"
     style="stroke-width:3.5555;fill:#282828;fill-opacity:1;opacity:0" />
  <path
     class="error"
     d="M 32,3.556 A 28.444,28.444 0 0 0 3.556,32 28.444,28.444 0 0 0 32,60.444 28.444,28.444 0 0 0 60.444,32 28.444,28.444 0 0 0 32,3.556 Z m 0,3.5555 A 24.8885,24.8885 0 0 1 56.8885,32 24.8885,24.8885 0 0 1 32,56.8885 24.8885,24.8885 0 0 1 7.1115,32 24.8885,24.8885 0 0 1 32,7.1115 Z"
     fill="#d65d0e"
     id="path4"
     style="stroke-width:3.5555;fill:#fe8019;fill-opacity:1" />
  <path
     class="error"
     d="m 32,14.2225 c -9.818242,0 -17.7775,7.959258 -17.7775,17.7775 0,9.818242 7.959258,17.7775 17.7775,17.7775 9.818242,0 17.7775,-7.959258 17.7775,-17.7775 0,-9.818242 -7.959258,-17.7775 -17.7775,-17.7775 z"
     color="#282828"
     color-rendering="auto"
     dominant-baseline="auto"
     fill="#d65d0e"
     image-rendering="auto"
     shape-rendering="auto"
     solid-color="#282828"
     stroke-width="14.1875"
     style="font-variant-ligatures:normal;font-variant-position:normal;font-variant-caps:normal;font-variant-numeric:normal;font-variant-alternates:normal;font-feature-settings:normal;text-indent:0;text-decoration:none;text-decoration-line:none;text-decoration-style:solid;text-decoration-color:#282828;text-transform:none;text-orientation:mixed;white-space:normal;shape-padding:0;isolation:auto;mix-blend-mode:normal;fill:#fe8019;fill-opacity:1"
     id="path6"
     sodipodi:nodetypes="sssss" />
</svg>
